<svg width="457" height="92" viewBox="0 0 457 92" fill="none" xmlns="http://www.w3.org/2000/svg">
<path d="M177.918 24.8711C181.054 24.8711 184.176 25.2375 187.284 25.9707C190.391 26.7038 193.23 27.9166 195.801 29.6084C198.372 31.2722 200.435 33.5426 201.989 36.4189C203.571 39.2952 204.362 42.8907 204.362 47.2051V90.6885H189.615V81.7637H189.106C188.174 83.5683 186.86 85.2598 185.165 86.8389C183.498 88.3898 181.393 89.6447 178.85 90.6035C176.336 91.534 173.384 92 169.994 92C165.869 92 162.154 91.2662 158.848 89.7998C155.571 88.3052 152.972 86.1056 151.051 83.2012C149.159 80.2968 148.211 76.7159 148.211 72.458C148.211 68.7921 148.89 65.7602 150.246 63.3633C151.602 60.9664 153.452 59.0485 155.797 57.6104C158.142 56.1723 160.784 55.0867 163.722 54.3535C166.688 53.5922 169.754 53.0425 172.917 52.7041C176.731 52.3093 179.826 51.9567 182.199 51.6465C184.572 51.3081 186.295 50.8008 187.369 50.124C188.47 49.4191 189.021 48.3333 189.021 46.8672V46.6133C189.021 43.4269 188.075 40.9593 186.182 39.2109C184.289 37.4627 181.563 36.588 178.003 36.5879C174.246 36.5879 171.265 37.4064 169.061 39.042C166.886 40.6775 165.417 42.6093 164.654 44.8369L150.331 42.8057C151.461 38.858 153.325 35.5588 155.924 32.9082C158.523 30.2293 161.702 28.2267 165.459 26.9014C169.217 25.5479 173.37 24.8711 177.918 24.8711ZM323.246 24.8711C327.257 24.8711 331.043 25.5203 334.602 26.8174C338.19 28.0864 341.355 30.0603 344.095 32.7393C346.864 35.4181 349.039 38.8305 350.621 42.9756C352.203 47.0927 352.994 51.9991 352.994 57.6953V62.3906H307.655C307.7 66.0068 308.389 69.1226 309.727 71.7383C311.111 74.4172 313.047 76.4759 315.533 77.9141C318.019 79.324 320.929 80.0293 324.262 80.0293C326.494 80.0293 328.514 79.7189 330.322 79.0986C332.13 78.4501 333.698 77.5053 335.026 76.2646C336.354 75.024 337.357 73.4871 338.035 71.6543L352.359 73.2617C351.455 77.0403 349.731 80.3393 347.188 83.1592C344.674 85.9507 341.453 88.1219 337.527 89.6729C333.6 91.1956 329.107 91.957 324.05 91.957C317.524 91.957 311.888 90.6036 307.142 87.8965C302.424 85.1612 298.793 81.2979 296.25 76.3066C293.708 71.2873 292.437 65.3797 292.437 58.584C292.437 51.9008 293.708 46.0349 296.25 40.9873C298.821 35.9116 302.409 31.9635 307.014 29.1436C311.619 26.2954 317.03 24.8711 323.246 24.8711ZM388.314 24.8711C393.597 24.8711 398.272 25.8444 402.34 27.79C406.437 29.7076 409.7 32.4292 412.129 35.9541C414.559 39.4508 415.944 43.5397 416.283 48.2207H401.621C401.027 45.0906 399.614 42.4822 397.382 40.3955C395.179 38.2806 392.227 37.2227 388.526 37.2227C385.39 37.2227 382.635 38.0688 380.262 39.7607C377.889 41.4245 376.038 43.8211 374.71 46.9512C373.411 50.0813 372.761 53.8322 372.761 58.2031C372.761 62.6303 373.411 66.4376 374.71 69.624C376.01 72.7822 377.832 75.2213 380.177 76.9414C382.55 78.6334 385.333 79.4795 388.526 79.4795C390.786 79.4795 392.806 79.0559 394.585 78.21C396.394 77.3358 397.905 76.0809 399.12 74.4453C400.334 72.8098 401.169 70.8219 401.621 68.4814H416.283C415.915 73.0779 414.559 77.1529 412.214 80.7061C409.87 84.2308 406.677 86.994 402.637 88.9961C398.597 90.97 393.851 91.957 388.399 91.957C381.901 91.957 376.321 90.5335 371.66 87.6855C367.026 84.8374 363.452 80.9033 360.938 75.8838C358.452 70.8362 357.209 65.0273 357.208 58.457C357.208 51.8584 358.48 46.035 361.023 40.9873C363.566 35.9115 367.153 31.9635 371.787 29.1436C376.448 26.2955 381.957 24.8711 388.314 24.8711ZM106.768 2.87598C111.599 2.87598 116.092 3.55269 120.245 4.90625C124.397 6.25978 128.098 8.24773 131.347 10.8701C134.596 13.4644 137.266 16.651 139.357 20.4297C141.476 24.1802 142.859 28.467 143.509 33.2891H127.661C127.209 30.6949 126.375 28.3966 125.161 26.3945C123.946 24.3642 122.434 22.6434 120.625 21.2334C118.818 19.8236 116.755 18.7665 114.439 18.0615C112.151 17.3284 109.679 16.9619 107.023 16.9619C102.305 16.9619 98.1235 18.1459 94.479 20.5146C90.8345 22.8552 87.9808 26.2959 85.9185 30.8359C83.8563 35.3477 82.8247 40.8604 82.8247 47.374C82.8247 54.0009 83.8561 59.5849 85.9185 64.125C88.0091 68.6368 90.8628 72.049 94.479 74.3613C98.1233 76.6454 102.29 77.7871 106.98 77.7871C109.579 77.7871 112.009 77.4492 114.269 76.7725C116.557 76.0675 118.606 75.038 120.414 73.6846C122.25 72.3311 123.79 70.6671 125.033 68.6934C126.304 66.7194 127.18 64.4627 127.661 61.9248L143.509 62.0098C142.916 66.1267 141.631 69.9902 139.654 73.5996C137.704 77.2091 135.147 80.3957 131.983 83.1592C128.819 85.8945 125.118 88.0379 120.88 89.5889C116.643 91.1116 111.938 91.873 106.768 91.873C99.1403 91.873 92.3315 90.1108 86.3423 86.5859C80.3529 83.061 75.6347 77.9705 72.188 71.3154C68.7414 64.6605 67.0181 56.6796 67.0181 47.374C67.0181 38.0403 68.7561 30.0603 72.231 23.4336C75.7059 16.7786 80.4379 11.688 86.4272 8.16309C92.4165 4.63827 99.1968 2.87604 106.768 2.87598ZM442.576 25.7178H455.417V37.5615H442.576V71.1465C442.576 73.205 442.887 74.784 443.508 75.8838C444.158 76.9552 445.005 77.6882 446.05 78.083C447.096 78.4778 448.255 78.6758 449.526 78.6758C450.486 78.6758 451.362 78.6048 452.153 78.4639C452.972 78.3229 453.594 78.1958 454.018 78.083L456.603 90.0537C455.784 90.3357 454.611 90.646 453.085 90.9844C451.588 91.3227 449.752 91.5207 447.577 91.5771C443.734 91.6899 440.273 91.1117 437.194 89.8428C434.114 88.5456 431.671 86.543 429.863 83.8359C428.083 81.1289 427.207 77.7451 427.235 73.6846V37.5615H417.997V25.7178H427.235V10.1514H442.576V25.7178ZM245.434 24.7871C246.282 24.7871 247.229 24.8295 248.274 24.9141C249.347 24.9705 250.237 25.069 250.943 25.21V39.2949C250.293 39.0694 249.262 38.8723 247.85 38.7031C246.466 38.5057 245.123 38.4072 243.824 38.4072C241.027 38.4072 238.513 39.0131 236.281 40.2256C234.077 41.41 232.339 43.0599 231.068 45.1748C229.797 47.2896 229.162 49.7289 229.162 52.4922V90.6885H213.821V25.7178H228.695V36.5459H229.374C230.56 32.7956 232.594 29.9053 235.475 27.875C238.385 25.8165 241.705 24.7871 245.434 24.7871ZM283.116 0C285.771 1.85544e-06 288.131 0.210799 290.193 0.633789C292.255 1.05672 293.78 1.43801 294.769 1.77637L291.718 13.6201C291.068 13.4227 290.249 13.2247 289.26 13.0273C288.272 12.8018 287.169 12.6895 285.955 12.6895C283.101 12.6895 281.082 13.3801 279.895 14.7617C278.737 16.1153 278.158 18.0617 278.158 20.5996V25.7178H291.633V37.5615H278.158V90.6885H262.775V37.5615H253.155V25.7178H262.775V19.584C262.775 15.2131 263.679 11.5754 265.487 8.6709C267.323 5.76658 269.781 3.59538 272.86 2.15723C275.939 0.719063 279.358 0 283.116 0ZM189.063 59.7256C188.583 60.1203 187.764 60.4869 186.606 60.8252C185.476 61.1636 184.204 61.4601 182.792 61.7139C181.379 61.9677 179.98 62.1932 178.596 62.3906C177.212 62.588 176.012 62.7575 174.995 62.8984C172.706 63.2086 170.657 63.7159 168.849 64.4209C167.041 65.1259 165.614 66.1129 164.569 67.3818C163.524 68.6226 163.001 70.2303 163.001 72.2041C163.002 75.0239 164.033 77.1527 166.095 78.5908C168.158 80.0289 170.785 80.748 173.977 80.748C177.056 80.748 179.727 80.1423 181.987 78.9297C184.247 77.6889 185.984 76.0528 187.199 74.0225C188.442 71.9922 189.063 69.7787 189.063 67.3818V59.7256ZM323.458 36.7998C320.322 36.7998 317.567 37.5613 315.194 39.084C312.821 40.5785 310.97 42.5525 309.642 45.0059C308.483 47.1695 307.831 49.5241 307.683 52.0693H338.29C338.261 49.1367 337.625 46.5282 336.382 44.2441C335.139 41.9318 333.401 40.1134 331.169 38.7881C328.966 37.4628 326.395 36.7999 323.458 36.7998Z" fill="white"/>
<path d="M33.625 19.3098L50.0801 8.93677L39.6895 25.3625L58.6729 29.6428L39.6895 33.9231L50.0801 50.3479L33.625 39.9758L29.3369 58.925L25.0479 39.9758L8.59277 50.3479L18.9844 33.9231L0 29.6428L18.9844 25.3625L8.59277 8.93677L25.0479 19.3098L29.3369 0.360596L33.625 19.3098Z" fill="#A57C00"/>
</svg>
