<?xml version="1.0" encoding="UTF-8" standalone="no"?>
<!DOCTYPE svg PUBLIC "-//W3C//DTD SVG 1.1//EN" "http://www.w3.org/Graphics/SVG/1.1/DTD/svg11.dtd">
<svg width="100%" height="100%" viewBox="0 0 994 392" version="1.1" xmlns="http://www.w3.org/2000/svg" xmlns:xlink="http://www.w3.org/1999/xlink" xml:space="preserve" xmlns:serif="http://www.serif.com/" style="fill-rule:evenodd;clip-rule:evenodd;stroke-linejoin:round;stroke-miterlimit:2;">
    <g transform="matrix(0.866034,0.499984,0.499984,-0.866034,678.531,228.735)">
        <path d="M3.51,-0.668C6.227,0.999 8.427,6.074 8.082,9.878C7.755,13.474 5.82,15.118 3.51,13.764C0.349,11.912 -2.684,6.413 -2.386,3.074C-2.068,-0.496 0.811,-2.324 3.51,-0.668" style="fill:rgb(175,202,11);fill-rule:nonzero;"/>
    </g>
    <g transform="matrix(0.865747,0.500482,0.500482,-0.865747,766.967,228.804)">
        <path d="M3.519,-0.673C6.247,0.989 8.411,5.993 8.074,9.862C7.756,13.49 5.845,15.128 3.519,13.763C0.355,11.906 -2.706,6.367 -2.395,3.061C-2.063,-0.467 0.844,-2.302 3.519,-0.673" style="fill:rgb(175,202,11);fill-rule:nonzero;"/>
    </g>
    <g transform="matrix(1,0,0,1,485.658,216.349)">
        <path d="M0,-216.349L-24.704,-166.625L-97.669,-162.419L-28.427,-155.603L-37.416,-105.591L-12.712,-155.315L60.253,-159.521L-8.989,-166.337L0,-216.349ZM-43.754,-3.688L-4.144,-3.688C11.106,-48.783 26.312,-93.745 41.55,-138.804L1.94,-138.804C-13.339,-93.626 -28.544,-48.664 -43.754,-3.688M-46.184,-38.07L-204.468,-38.07C-193.079,-71.746 -181.771,-105.185 -170.416,-138.762L-210.176,-138.762C-225.424,-93.672 -240.631,-48.705 -255.869,-3.647L-57.825,-3.647C-53.929,-15.167 -50.097,-26.499 -46.184,-38.07M228.559,0C244.267,-46.449 259.847,-92.517 275.47,-138.714L235.778,-138.714C226.541,-111.401 217.367,-84.274 208.042,-56.7C158.218,-85.353 108.705,-113.827 59.076,-142.368C43.334,-95.819 27.756,-49.757 12.191,-3.731L51.939,-3.731C61.15,-30.967 70.302,-58.029 79.604,-85.537L228.559,0ZM505.701,-138.894C460.471,-138.873 415.276,-138.955 369.987,-138.757C353.793,-138.687 337.162,-136.436 319.963,-129.242C302.31,-121.859 288.548,-110.024 278.597,-93.746C272.024,-82.992 268.213,-72.065 265.25,-61.098C263.041,-52.926 262.371,-45.047 263.473,-37.638C265.38,-24.809 272.822,-16.41 284.06,-11.127C295.951,-5.537 309.852,-3.692 324.539,-3.636C369.537,-3.465 414.627,-3.562 459.681,-3.555L461.973,-3.555C470.104,-27.598 478.15,-51.391 486.204,-75.205L446.48,-75.205C446.48,-75.205 438.131,-50.515 433.901,-38.008L430.687,-38.008C400.955,-38.008 371.18,-37.886 341.521,-38.098C334.591,-38.147 327.728,-38.734 321.404,-40.122C311.317,-42.335 304.996,-48.184 305.673,-59.46C306.087,-66.378 308.579,-73.463 312.237,-80.459C317.224,-89.996 325.002,-96.639 335.282,-100.318C342.926,-103.055 350.365,-104.223 357.569,-104.233C402.648,-104.299 447.702,-104.292 492.764,-104.309L496.059,-104.309C499.989,-115.93 503.824,-127.268 507.699,-138.726C506.954,-138.791 506.345,-138.895 505.701,-138.894M-417.815,-86.239C-408.743,-86.239 -399.928,-86.235 -391.109,-86.24C-360.802,-86.257 -330.511,-86.225 -300.16,-86.375C-296.9,-86.391 -293.284,-87.107 -289.835,-88.152C-285.283,-89.53 -282.855,-93.006 -281.566,-97.119C-280.315,-101.113 -280.866,-104.186 -284.446,-105.269C-287.319,-106.138 -290.448,-106.782 -293.713,-106.793C-332.128,-106.922 -370.591,-106.914 -409.043,-106.936C-409.6,-106.936 -410.185,-106.849 -410.864,-106.794C-413.181,-99.942 -415.444,-93.251 -417.815,-86.239M-435.003,-35.53C-434.333,-35.482 -433.873,-35.418 -433.392,-35.418C-394.485,-35.442 -355.589,-35.437 -316.646,-35.569C-313.794,-35.579 -310.611,-36.316 -307.575,-37.198C-303.031,-38.518 -300.483,-41.307 -298.835,-46.085C-297.234,-50.727 -297.823,-53.935 -301.523,-54.971C-305.374,-56.05 -309.566,-56.768 -313.903,-56.784C-350.922,-56.922 -388.008,-56.863 -425.074,-56.864L-427.789,-56.864C-430.244,-49.604 -432.572,-42.72 -435.003,-35.53M-439.921,-138.902L-436.691,-138.902C-386.813,-138.902 -336.93,-138.916 -287.059,-138.892C-274.895,-138.886 -262.837,-138.55 -252.195,-135.164C-248.338,-133.937 -244.713,-132.193 -241.542,-130.056C-236.081,-126.377 -233.728,-120.574 -234.166,-113.183C-234.596,-105.935 -236.882,-98.561 -240.78,-91.23C-245.703,-81.97 -253.503,-75.706 -263.328,-71.906C-263.744,-71.745 -264.16,-71.583 -265.068,-71.231C-263.734,-70.496 -262.648,-69.989 -261.679,-69.35C-254.575,-64.668 -252.439,-57.327 -254.973,-47.568C-256.992,-39.793 -259.903,-32.089 -265.729,-24.875C-273.509,-15.243 -283.481,-10.439 -294.202,-7.54C-304.378,-4.788 -314.283,-3.729 -323.857,-3.7C-377.455,-3.534 -430.981,-3.583 -484.53,-3.562C-484.855,-3.562 -485.162,-3.614 -485.658,-3.658C-470.438,-48.663 -455.231,-93.63 -439.921,-138.902" style="fill:white;fill-rule:nonzero;"/>
    </g>
    <g transform="matrix(1,0,0,1,455.91,275.229)">
        <path d="M0,-103.903L-2.835,-102.676C-13.534,-97.951 -23.996,-91.643 -33.932,-83.928C-56.202,-66.638 -69.864,-47.632 -74.538,-27.439C-76.699,-18.105 -75.695,-10.145 -71.555,-3.78C-71.041,-2.99 -70.412,-2.432 -69.907,-1.985C-69.751,-1.845 -69.593,-1.708 -69.446,-1.562L-67.874,0L-64.113,-2.277L-63.946,-3.646C-63.923,-3.84 -63.887,-4.04 -63.852,-4.239C-63.74,-4.883 -63.601,-5.686 -63.683,-6.535C-63.815,-7.895 -63.98,-9.239 -64.146,-10.582C-64.322,-12.005 -64.504,-13.477 -64.635,-14.924C-65.369,-23.055 -63.979,-30.281 -60.26,-37.666C-53.465,-51.159 -43.103,-63.411 -29.461,-74.083C-21.741,-80.121 -13.402,-85.116 -4.997,-89.114C-4.415,-90.818 -1.625,-99.198 0,-103.903" style="fill:rgb(175,202,11);fill-rule:nonzero;"/>
    </g>
    <g transform="matrix(1,0,0,1,527.582,342.057)">
        <path d="M0,-171.647C-7.933,-177.043 -17.465,-179.809 -28.992,-179.883C-30.275,-175.655 -33.356,-167.124 -33.356,-167.124L-32.093,-167.103C-28.874,-167.074 -25.873,-166.787 -23.174,-166.251C-15.515,-164.73 -10.159,-161.483 -7.256,-156.602C-4.293,-151.62 -3.672,-144.675 -5.41,-135.961C-8.2,-121.973 -15.738,-107.847 -22.744,-95.875C-29.811,-83.796 -38.439,-71.649 -48.391,-59.769C-63.366,-41.889 -78.834,-27.36 -95.679,-15.351C-103.817,-9.549 -110.202,-6.273 -116.38,-4.728C-117.965,-4.332 -119.419,-4.13 -120.703,-4.13C-124.746,-4.129 -126.723,-6.019 -126.926,-10.076C-127.102,-13.594 -126.388,-17.758 -124.68,-23.179C-121.591,-32.986 -116.957,-42.953 -112.41,-52.262L-109.569,-58.078C-96.319,-85.206 -83.069,-112.333 -69.854,-139.459C-69.064,-141.08 -68.45,-142.818 -68.076,-144.486C-67.684,-146.239 -68.015,-147.888 -69.009,-149.129C-70.011,-150.381 -71.559,-151.071 -73.366,-151.071C-73.916,-151.071 -74.488,-151.005 -75.068,-150.877C-77.674,-150.301 -80.029,-148.8 -82.268,-146.289C-85.826,-142.297 -87.861,-138.134 -89.237,-134.954C-90.546,-131.927 -91.813,-128.902 -93.079,-125.876C-95.039,-121.193 -97.066,-116.351 -99.218,-111.605C-102.793,-103.718 -106.52,-95.693 -110.123,-87.931C-113.309,-81.068 -116.604,-73.97 -119.786,-66.987C-121.327,-63.606 -122.955,-60.158 -124.529,-56.823C-128.993,-47.365 -133.609,-37.585 -136.928,-27.929C-139.874,-19.358 -141.086,-12.666 -140.744,-6.865C-140.154,3.138 -134.4,6.549 -129.678,7.65C-128.011,8.039 -126.2,8.236 -124.296,8.236C-120.967,8.236 -117.3,7.656 -113.086,6.462C-101.883,3.29 -91.609,-3.346 -83.911,-8.773C-71.962,-17.195 -60.328,-27.294 -47.298,-40.558C-27.606,-60.603 -12.673,-80.061 -1.648,-100.043C7.095,-115.89 11.728,-129.626 12.515,-142.035C13.367,-155.457 9.156,-165.42 0,-171.647" style="fill:rgb(175,202,11);fill-rule:nonzero;"/>
    </g>
    <g transform="matrix(1,0,0,1,302.8,258.899)">
        <path d="M0,17.246C-4.179,17.246 0.553,9.95 2.09,7.842C3.792,5.508 7.039,1.316 9.404,-0.516C8.936,1.071 8.962,5.252 9.868,6.67C10.335,7.402 10.907,7.915 11.422,8.328C9.251,11.479 4.179,17.246 0,17.246M46.359,-3.868C38.858,0.084 31.954,2.089 25.837,2.089C25.209,2.089 24.581,2.068 23.961,2.026C24.242,-0.551 23.114,-2.783 20.866,-3.958C20.599,-4.097 20.32,-4.214 20.031,-4.311C20.235,-5.153 20.179,-6.069 19.855,-6.947C19.263,-8.551 17.608,-11.243 13.172,-11.243C12.374,-11.243 11.497,-11.153 10.565,-10.975C-3.029,-8.388 -16.31,6.191 -16.246,18.456C-16.22,23.54 -13.643,25.968 -11.484,27.11C-9.754,28.025 -7.717,28.489 -5.43,28.489C1.531,28.489 9.765,24.272 15.545,17.745C17.046,16.051 18.384,14.261 19.677,12.53C19.997,12.101 20.318,11.67 20.645,11.238L21.363,11.241C30.681,11.241 40.439,8.233 50.369,2.299C51.651,1.533 52.83,0.626 53.97,-0.251C54.456,-0.625 54.942,-0.999 55.433,-1.357L57.178,-2.633L54.977,-8.408L46.359,-3.868Z" style="fill:rgb(175,202,11);fill-rule:nonzero;"/>
    </g>
    <g transform="matrix(1,0,0,1,532.831,266.764)">
        <path d="M0,1.685C-1.002,-2.949 6.103,-9.636 12.163,-11.934C14.035,-12.644 16.369,-10.565 15.355,-8.487C15.188,-8.255 14.889,-7.753 14.494,-7.305C10.949,-3.277 6.855,-0.188 2.138,1.649C1.386,1.941 0.108,2.183 0,1.685M83.215,-25.389C84.753,-25.327 86.219,-24.902 87.77,-24.452C88.685,-24.188 89.631,-23.913 90.648,-23.694C91.002,-23.619 91.383,-23.581 91.78,-23.581C92.586,-23.581 93.75,-23.739 94.714,-24.496C95.966,-25.48 96.604,-27.289 96.569,-28.492C96.526,-29.985 96.187,-31.249 95.563,-32.249C94.509,-33.935 92.295,-35.944 87.737,-35.944C87.484,-35.944 87.228,-35.939 86.97,-35.927C81.385,-35.667 75.666,-35.275 70.136,-34.897L69.138,-34.828C70.938,-38.402 72.744,-41.976 74.551,-45.55C76.87,-50.138 79.189,-54.726 81.494,-59.315L82.05,-60.416C83.188,-62.668 84.364,-64.996 85.297,-67.327C86.315,-69.868 85.925,-71.645 85.419,-72.688C84.976,-73.601 84.039,-74.808 82.093,-75.38C81.527,-75.546 80.919,-75.631 80.287,-75.631C77.987,-75.631 75.425,-74.526 73.257,-72.601C72.321,-71.769 71.26,-70.826 70.542,-69.659C70.036,-68.835 69.514,-68.01 68.992,-67.183C67.255,-64.436 65.46,-61.595 64.148,-58.716C61.395,-52.677 58.865,-46.564 56.417,-40.651C55.697,-38.911 54.976,-37.17 54.249,-35.429C53.802,-34.357 53.483,-33.7 53.302,-33.475C53.143,-33.431 52.731,-33.369 51.66,-33.351L50.205,-33.32C49.304,-33.3 48.403,-33.279 47.513,-33.279C45.384,-33.279 42.955,-33.386 41.078,-34.176C40.407,-34.457 39.669,-34.607 38.943,-34.607C37.208,-34.607 35.59,-33.789 34.388,-32.305C32.212,-29.621 32.93,-26.866 34.607,-25.326C35.518,-24.491 36.523,-24.019 37.595,-23.922C38.791,-23.815 40.088,-23.714 41.459,-23.714C41.868,-23.714 42.28,-23.723 42.694,-23.742C44.927,-23.847 47.208,-24.011 49.376,-24.182C48.182,-21.724 46.886,-18.976 45.785,-16.302C44.648,-13.542 42.968,-11.364 40.335,-9.24C29.941,-0.853 20.863,4.446 11.768,7.435C9.174,8.288 6.974,8.721 5.228,8.721C3.696,8.721 2.513,8.397 1.628,7.735C1.981,7.564 2.445,7.358 3.055,7.113C9.56,4.508 14.987,0.792 19.647,-4.245C22.71,-7.555 24.103,-11.047 23.571,-14.078C23.194,-16.221 21.865,-17.981 19.828,-19.031C18.618,-19.656 17.243,-19.973 15.739,-19.973C14.088,-19.973 12.295,-19.603 10.258,-18.841C-0.011,-15.003 -7.954,-8.51 -13.351,0.457C-16.653,5.942 -17.496,10.873 -15.789,14.715C-14.864,16.797 -12.747,19.477 -7.917,20.42C-6.697,20.658 -5.399,20.778 -4.058,20.778C-2.763,20.778 -1.451,20.666 -0.158,20.443C11.103,18.504 23.014,12.953 36.252,3.475C35.214,5.584 34.17,7.694 33.127,9.804C25.924,24.368 18.476,39.428 12.686,54.272C10.922,58.795 9.757,63.267 8.63,67.591C8.369,68.593 8.107,69.594 7.839,70.596C7.235,72.852 7.408,74.559 8.368,75.809C9.114,76.78 10.241,77.316 11.542,77.316C11.725,77.316 11.92,77.306 12.123,77.282C14.914,76.96 17.467,72.274 17.49,72.228C19.275,68.729 20.944,65.187 22.558,61.761C23.285,60.217 24.012,58.673 24.751,57.13L31.133,43.795C37.41,30.674 43.9,17.106 50.337,3.765C53.067,-1.895 55.916,-7.653 58.672,-13.223C60.467,-16.852 62.263,-20.481 64.04,-24.11C64.628,-25.312 64.86,-25.314 64.948,-25.315C66.474,-25.334 68.004,-25.363 69.534,-25.392C72.141,-25.44 74.837,-25.491 77.45,-25.491C79.589,-25.491 81.475,-25.458 83.215,-25.389" style="fill:rgb(175,202,11);fill-rule:nonzero;"/>
    </g>
    <g transform="matrix(1,0,0,1,877.928,290.413)">
        <path d="M0,-29.794C-4.612,-24.813 -10.106,-20.786 -15.686,-17.006C-16.987,-16.126 -18.427,-15.336 -19.781,-14.841C-21.885,-14.072 -23.035,-17.403 -21.781,-20.329C-20.898,-22.389 -9.917,-30 -4.486,-33.153C0.443,-36.015 3.65,-33.736 0,-29.794M-29.94,28.61C-33.133,33.435 -37.134,39.041 -42.587,44.041C-45.632,46.832 -48.644,48.902 -51.797,50.368C-52.805,50.836 -53.508,51.053 -53.969,51.152C-53.906,50.825 -53.787,50.374 -53.565,49.778C-51.76,44.938 -48.817,40.153 -44.818,35.555C-38.351,28.123 -30.753,21.072 -21.292,13.761C-23.891,18.749 -26.683,23.69 -29.94,28.61M-148.261,-59.604C-144.587,-65.856 -140.78,-72.092 -136.914,-78.315C-136.026,-79.744 -134.796,-81.209 -133.484,-82.433C-132.684,-83.179 -131.215,-83.906 -130.448,-83.866C-129.938,-83.84 -129.715,-82.439 -130.093,-81.666C-131.597,-78.593 -133.15,-75.473 -135.119,-72.465C-140.375,-64.433 -146.526,-56.709 -153.114,-49.17C-153.434,-48.804 -153.821,-48.475 -154.178,-48.128C-154.278,-48.16 -154.379,-48.192 -154.479,-48.224C-152.416,-52.018 -150.48,-55.83 -148.261,-59.604M41.402,-39.713L39.358,-37.995C29.724,-29.895 19.582,-23.425 8.932,-16.953C9.58,-18.336 10.243,-19.72 10.907,-21.104C12.769,-24.99 14.694,-29.008 16.265,-32.981C17.407,-35.872 17.402,-38.197 16.248,-39.893C15.718,-40.673 14.454,-41.983 11.954,-41.983C10.419,-41.983 8.6,-41.474 6.546,-40.469C4.692,-42.235 2.266,-43.163 -0.533,-43.163C-2.506,-43.163 -4.725,-42.704 -7.128,-41.8C-14.133,-39.167 -20.723,-34.677 -27.273,-28.076C-31.172,-24.146 -35.839,-20.817 -41.147,-18.179C-42.867,-17.325 -44.481,-16.874 -45.815,-16.874C-47.881,-16.874 -48.354,-17.905 -48.535,-18.803C-48.861,-20.42 -49.006,-22.176 -49.158,-24.036C-49.26,-25.27 -49.365,-26.545 -49.529,-27.805C-49.606,-28.391 -49.674,-28.983 -49.743,-29.575C-50.017,-31.934 -50.3,-34.374 -51.063,-36.653C-51.98,-39.387 -54.29,-41.02 -57.243,-41.02C-59.593,-41.02 -62.195,-40.006 -64.768,-38.087C-66.679,-36.664 -68.341,-35.235 -69.724,-33.829C-69.237,-35.655 -69.309,-37.267 -69.936,-38.707C-70.88,-40.872 -72.836,-42.114 -75.303,-42.114C-75.861,-42.114 -76.454,-42.05 -77.064,-41.925C-79.394,-41.449 -81.329,-40.025 -82.979,-37.572C-83.173,-37.284 -83.496,-36.929 -83.887,-36.575C-92.683,-28.616 -100.301,-22.682 -107.863,-17.899C-112.139,-15.195 -117.173,-12.333 -122.084,-11.601C-122.299,-11.569 -122.5,-11.552 -122.679,-11.552C-122.728,-11.552 -122.772,-11.554 -122.812,-11.556C-122.79,-11.65 -122.758,-11.765 -122.71,-11.901C-121.905,-14.191 -120.69,-16.654 -119.515,-19.035L-118.808,-20.472C-118.017,-22.093 -117.183,-23.714 -116.35,-25.336C-114.97,-28.02 -113.544,-30.795 -112.317,-33.557C-111.289,-35.871 -111.198,-37.863 -112.047,-39.48C-112.764,-40.849 -114.111,-41.782 -115.836,-42.107C-116.282,-42.192 -116.745,-42.234 -117.211,-42.234C-119.945,-42.234 -122.858,-40.771 -125.413,-38.115C-125.796,-37.717 -126.172,-37.309 -126.548,-36.9C-127.439,-35.93 -128.28,-35.015 -129.173,-34.307L-132.421,-31.719C-137.612,-27.579 -142.98,-23.296 -148.386,-19.392C-154.384,-15.062 -159.264,-12.589 -163.743,-11.612C-164.169,-11.519 -164.562,-11.472 -164.912,-11.472C-166.031,-11.472 -166.051,-11.809 -166.078,-12.275C-166.136,-13.285 -166.032,-14.357 -165.778,-15.377C-164.083,-22.152 -160.72,-29.208 -157.13,-36.444C-156.573,-37.568 -155.676,-38.851 -154.606,-40.059C-152.946,-41.928 -151.202,-43.814 -149.514,-45.637C-147.581,-47.727 -145.581,-49.888 -143.67,-52.068C-138.011,-58.523 -132.16,-65.198 -127.738,-72.594C-125.612,-76.151 -123.414,-79.829 -122.823,-83.745C-122.348,-86.893 -123.31,-88.788 -124.201,-89.823C-125.013,-90.766 -126.526,-91.891 -129.119,-91.891C-130.536,-91.891 -132.125,-91.545 -133.841,-90.865C-136.846,-89.673 -139.657,-87.794 -142.435,-85.118C-146.353,-81.342 -149.923,-77.002 -153.667,-71.461C-161.576,-59.754 -167.592,-47.94 -172.915,-36.917C-173.435,-35.839 -173.818,-35.367 -174.049,-35.16C-182.241,-27.798 -189.759,-22.031 -197.033,-17.529C-201.089,-15.019 -205.86,-12.362 -210.5,-11.682C-210.717,-11.651 -210.917,-11.634 -211.093,-11.634C-211.152,-11.634 -211.204,-11.636 -211.249,-11.639C-211.243,-11.733 -211.229,-11.852 -211.2,-12.001C-211.012,-12.972 -210.695,-13.923 -210.285,-14.752C-209.479,-16.378 -208.589,-18.049 -207.729,-19.665C-207.025,-20.987 -206.321,-22.309 -205.647,-23.632L-204.802,-25.284C-203.406,-28.005 -201.964,-30.819 -200.737,-33.62C-199.519,-36.4 -199.922,-38.318 -200.474,-39.437C-201.135,-40.777 -202.367,-41.729 -203.94,-42.115C-204.487,-42.25 -205.06,-42.318 -205.645,-42.318C-208.161,-42.318 -210.862,-41.066 -213.249,-38.794C-213.71,-38.357 -214.105,-37.92 -214.487,-37.498C-214.722,-37.238 -214.957,-36.978 -215.204,-36.726C-215.561,-36.362 -215.911,-35.985 -216.261,-35.607C-217.008,-34.8 -217.713,-34.039 -218.429,-33.504L-219.657,-32.587C-223.092,-30.02 -226.644,-27.365 -230.209,-25.145C-233.179,-23.296 -236.396,-21.72 -239.513,-20.586C-240.739,-20.14 -241.446,-20.044 -241.791,-20.033C-241.819,-20.294 -241.826,-20.751 -241.719,-21.479C-241.623,-22.139 -241.499,-22.81 -241.375,-23.48C-241.145,-24.73 -240.906,-26.024 -240.814,-27.325C-240.689,-29.079 -242.469,-31.153 -245.124,-30.461C-254.715,-27.959 -262.548,-24.873 -268.851,-17.187C-270.899,-14.688 -275.98,-17.149 -273.949,-19.625C-265.647,-29.75 -249.563,-41.13 -239.469,-36.21C-239.508,-36.585 -239.577,-36.973 -239.716,-37.372C-241.041,-41.186 -244.241,-43.288 -248.727,-43.288C-249.842,-43.288 -251.062,-43.159 -252.353,-42.905C-260.833,-41.235 -267.93,-35.567 -273.754,-30.244C-279.057,-25.395 -282.666,-20.68 -284.784,-15.83C-286.761,-11.304 -285.946,-8.474 -284.914,-6.898C-283.659,-4.98 -281.437,-3.924 -278.656,-3.924C-277.591,-3.924 -276.425,-4.077 -275.193,-4.377C-268.826,-5.925 -263.387,-9.778 -258.457,-13.863C-257.18,-9.59 -253.827,-7.196 -248.954,-7.196C-247.459,-7.196 -245.773,-7.417 -243.945,-7.852C-236.9,-9.531 -230.656,-13.753 -226.004,-17.244C-225.362,-17.726 -224.726,-18.212 -224.091,-18.704C-224.884,-16.188 -225.624,-13.626 -225.955,-11.134C-226.415,-7.679 -225.798,-4.957 -224.121,-3.042C-222.502,-1.193 -220.051,-0.256 -216.835,-0.256C-215.819,-0.256 -214.7,-0.35 -213.509,-0.537C-207.43,-1.49 -201.616,-4.678 -196.73,-7.672C-190.917,-11.235 -185.034,-15.579 -178.879,-20.863C-179.904,-16.818 -180.442,-12.77 -179.904,-8.937C-179.124,-3.383 -175.514,-0.199 -169.998,-0.199C-168.693,-0.199 -167.261,-0.378 -165.742,-0.735C-163.127,-1.347 -160.176,-2.474 -157.21,-3.996C-150.413,-7.48 -143.644,-12.095 -135.548,-18.79C-136.222,-16.842 -136.839,-14.882 -137.287,-12.948C-138.241,-8.826 -137.806,-5.579 -135.993,-3.298C-134.873,-1.889 -132.664,-0.21 -128.502,-0.21C-127.267,-0.21 -125.9,-0.356 -124.437,-0.646C-121.767,-1.173 -118.659,-2.272 -114.936,-4.004C-106.138,-8.096 -98.289,-14.231 -91.522,-19.903C-92.785,-17.012 -94.038,-14.09 -95.206,-11.195C-96.629,-7.669 -97.643,-4.252 -98.22,-1.037C-98.582,0.978 -97.952,2.245 -97.36,2.953C-96.598,3.863 -95.483,4.364 -94.218,4.364C-92.768,4.364 -91.125,3.685 -89.469,2.4C-87.958,1.228 -86.653,-0.201 -85.802,-1.173C-84.572,-2.582 -83.37,-4.007 -82.168,-5.433C-80.2,-7.767 -78.165,-10.181 -76.051,-12.439C-72.946,-15.757 -69.794,-18.774 -66.68,-21.406C-66.336,-21.697 -66.049,-21.902 -65.82,-22.046C-65.693,-21.281 -65.614,-20.447 -65.532,-19.576C-65.458,-18.786 -65.382,-17.995 -65.272,-17.224C-65.203,-16.746 -65.146,-16.26 -65.089,-15.775C-64.895,-14.14 -64.695,-12.451 -64.113,-10.832C-62.431,-6.159 -58.904,-3.586 -54.18,-3.586C-51.387,-3.586 -48.242,-4.443 -44.566,-6.206C-42.119,-7.378 -39.727,-8.848 -37.4,-10.33C-37.382,-8.826 -36.991,-7.526 -36.231,-6.441C-35.364,-5.207 -33.624,-3.734 -30.256,-3.735C-29.116,-3.735 -27.84,-3.906 -26.461,-4.245C-22.395,-5.243 -18.745,-6.982 -15.612,-9.414C-13.002,-11.44 -10.412,-13.555 -7.886,-15.635C-9.186,-12.579 -10.489,-9.468 -11.688,-6.393C-12.612,-4.02 -14.116,-2.318 -17.051,-0.322C-30.615,8.899 -41.516,18.489 -50.378,28.993C-55.505,35.071 -61.097,42.369 -63.697,50.42C-65.173,54.995 -64.162,57.77 -63.053,59.292C-61.737,61.101 -59.574,62.097 -56.965,62.097C-56.433,62.097 -55.874,62.057 -55.303,61.977C-52.314,61.559 -49.239,60.247 -45.331,57.722C-35.31,51.249 -26.537,42.613 -17.722,30.542C-11.159,21.554 -5.418,11.898 0.345,0.153C1.061,-1.307 1.937,-2.242 3.575,-3.293L4.533,-3.908C11.61,-8.449 18.928,-13.145 25.998,-18.088C30.307,-21.1 34.444,-24.522 38.444,-27.832L40.095,-29.195C41.242,-30.141 42.12,-31.294 42.894,-32.312C43.201,-32.715 43.507,-33.119 43.828,-33.502L45.452,-35.439L41.402,-39.713Z" style="fill:rgb(175,202,11);fill-rule:nonzero;"/>
    </g>
    <g transform="matrix(1,0,0,1,185.166,299.951)">
        <path d="M0,-47.652C4.171,-56.38 8.485,-65.406 12.609,-74.289C17.322,-84.442 22.624,-96.429 26.2,-108.354C27.889,-113.986 29.697,-121.311 28.678,-128.015C27.237,-137.494 20.974,-139.483 15.974,-139.483C15.667,-139.483 15.353,-139.476 15.031,-139.462C10.961,-139.273 6.428,-137.824 0.766,-134.898C-5.673,-131.57 -12.276,-127.127 -19.419,-121.312L-22.034,-119.184L-2.861,-119.184C-0.996,-120.353 0.904,-121.475 2.771,-122.566C3.633,-123.07 4.495,-123.574 5.351,-124.082C6.294,-124.641 7.419,-125.006 8.685,-125.391C9.521,-125.646 10.261,-125.776 10.883,-125.776C11.96,-125.776 12.425,-125.552 12.517,-124.172C12.758,-120.522 11.659,-116.345 10.496,-111.923C10.299,-111.179 10.104,-110.434 9.914,-109.692C7.89,-101.758 4.694,-92.878 -0.145,-81.741C-3.735,-73.478 -7.497,-65.065 -11.135,-56.929C-12.696,-53.438 -14.257,-49.946 -15.812,-46.453C-16.107,-45.788 -16.417,-45.123 -16.728,-44.455C-18.901,-39.794 -19.284,-39.791 -22.946,-39.762C-26.289,-39.736 -29.623,-39.727 -32.953,-39.727C-36.367,-39.727 -39.778,-39.736 -43.188,-39.746C-44.478,-39.749 -45.767,-39.753 -47.057,-39.756L-46.898,-40.094L-79.763,-40.124C-79.986,-40.124 -80.188,-40.127 -80.373,-40.131C-80.014,-40.631 -79.514,-41.285 -78.816,-42.131C-76.25,-45.248 -73.716,-48.381 -71.182,-51.515C-66.02,-57.897 -60.681,-64.498 -55.167,-70.815C-50.616,-76.03 -46.3,-80.771 -41.974,-85.309L-39.762,-87.246L-54.423,-87.24C-54.423,-87.24 -69.825,-70.674 -79.507,-58.773C-82.799,-54.725 -85.948,-50.548 -88.993,-46.508L-90.765,-44.16C-93.503,-40.537 -95.602,-40.072 -97.177,-40.072C-97.178,-40.072 -98.158,-40.076 -98.158,-40.076C-100.169,-40.076 -102.366,-40.024 -105.072,-39.914C-107.247,-39.825 -109.419,-39.742 -111.592,-39.66C-118.468,-39.398 -125.578,-39.128 -132.678,-38.648C-135.862,-38.433 -139.228,-37.497 -142.482,-36.59L-143.276,-36.37C-144.562,-36.014 -145.594,-35.08 -146.504,-34.256C-146.785,-34.002 -147.063,-33.746 -147.337,-33.531L-149.853,-31.581L-147.613,-29.322C-147.549,-29.25 -147.494,-29.166 -147.435,-29.085C-147.016,-28.51 -146.146,-27.316 -144.51,-27.025C-142.576,-26.678 -140.307,-26.309 -137.854,-26.309C-137.618,-26.309 -137.38,-26.312 -137.143,-26.32C-126.519,-26.63 -115.682,-27.042 -105.201,-27.439L-102.638,-27.537C-103.728,-25.857 -104.826,-24.178 -105.924,-22.5C-109.52,-17.002 -113.238,-11.315 -116.635,-5.658C-123.638,6.005 -128.48,16.323 -131.436,25.885C-134.868,36.984 -134.648,45.583 -130.763,52.176C-128.331,56.304 -124.267,58.486 -119.011,58.486C-118.601,58.486 -118.179,58.472 -117.75,58.446C-116.622,58.377 -115.666,57.853 -114.821,57.39C-114.592,57.265 -114.364,57.137 -114.146,57.036L-111.664,55.89L-112.718,53.369C-112.762,53.265 -112.794,53.154 -112.83,53.043C-113.01,52.488 -113.282,51.648 -113.962,50.905C-114.55,50.263 -115.162,49.704 -115.753,49.164C-116.578,48.411 -117.356,47.701 -117.837,46.954C-121.086,41.921 -121.068,34.643 -117.785,24.703C-114.788,15.633 -110.177,5.913 -104.079,-4.185C-100.003,-10.934 -95.729,-17.623 -91.342,-24.452C-90.016,-26.517 -88.51,-27.517 -86.308,-27.795C-85.264,-27.926 -84.292,-27.994 -83.418,-27.994L-80.655,-27.961C-73.114,-27.867 -65.316,-27.771 -57.685,-27.612L-52.585,-27.508C-44.119,-27.34 -35.364,-27.166 -26.871,-26.798C-26.14,-26.767 -25.6,-26.727 -25.203,-26.685C-25.585,-25.704 -26.224,-24.381 -26.489,-23.834C-29.238,-18.144 -32.007,-12.456 -34.776,-6.766C-40.806,5.622 -47.041,18.433 -52.966,31.041C-54.218,33.704 -55.487,36.369 -56.756,39.034C-62.361,50.801 -68.158,62.969 -72.341,74.946C-73.779,79.061 -74.365,83.023 -74.882,86.519C-75.07,87.795 -74.651,89.139 -73.731,90.204C-72.839,91.239 -71.615,91.831 -70.374,91.831L-70.183,91.828L-70.074,91.82C-68.516,91.701 -67.257,90.641 -65.924,89.52C-65.596,89.244 -65.271,88.968 -64.965,88.738C-64.292,88.23 -63.937,87.595 -63.69,87.153C-62.831,85.625 -61.938,84.097 -61.044,82.569C-59.038,79.134 -56.962,75.582 -55.27,72.031C-50.302,61.612 -45.419,51.025 -40.696,40.786C-38.807,36.691 -36.918,32.596 -35.019,28.5L-33.152,24.473L-33.366,24.473L-28.852,14.624C-23.444,2.825 -18.037,-8.976 -12.616,-20.776C-9.963,-26.549 -9.649,-26.558 -4.394,-26.711C-0.921,-26.811 2.746,-27.404 6.512,-28.055C8.221,-28.351 11.777,-28.966 12.907,-32.381C13.25,-33.416 13.107,-34.53 12.506,-35.52C11.714,-36.823 10.09,-37.875 8.464,-38.135C4.613,-38.754 0.687,-39.063 -2.982,-39.305C-3.349,-39.33 -3.648,-39.357 -3.892,-39.384C-3.743,-39.765 -3.52,-40.283 -3.187,-40.98L0,-47.652Z" style="fill:rgb(175,202,11);fill-rule:nonzero;"/>
    </g>
    <g transform="matrix(1,0,0,1,291.439,295.202)">
        <path d="M0,-54.089C2.299,-54.114 4.6,-54.139 6.887,-54.139C9.73,-54.139 12.076,-54.101 14.27,-54.017C15.583,-53.968 16.794,-53.593 18.197,-53.159C19.029,-52.902 19.889,-52.636 20.826,-52.425C21.3,-52.319 21.767,-52.297 22.075,-52.297C23.403,-52.297 24.444,-52.67 25.169,-53.405C26.061,-54.312 26.952,-55.989 26.798,-57.532C26.642,-59.102 26.175,-60.421 25.41,-61.455C24.325,-62.921 22.138,-64.67 17.883,-64.67C17.608,-64.67 17.33,-64.662 17.048,-64.649C11.434,-64.374 5.691,-63.979 0.138,-63.595L-0.65,-63.541C1.6,-68.01 3.86,-72.479 6.121,-76.947C8.577,-81.802 11.033,-86.655 13.475,-91.51C14.318,-93.187 15.187,-94.973 15.741,-96.748C16.39,-98.834 16.156,-100.784 15.083,-102.242C14.074,-103.613 12.474,-104.368 10.578,-104.368C9.174,-104.368 7.635,-103.938 6.127,-103.121C4.872,-102.442 3.551,-101.434 2.411,-100.284C-0.406,-97.448 -2.635,-94.102 -4.402,-90.055C-6.81,-84.541 -9.182,-79.028 -11.555,-73.516C-13.019,-70.113 -14.483,-66.712 -15.956,-63.31C-16.275,-62.572 -16.459,-62.264 -16.549,-62.138C-16.662,-62.117 -16.896,-62.089 -17.351,-62.083C-18.077,-62.074 -18.808,-62.056 -19.54,-62.037C-20.492,-62.012 -21.444,-61.986 -22.383,-61.986C-24.453,-61.986 -26.817,-62.093 -28.662,-62.879C-29.341,-63.168 -30.089,-63.32 -30.826,-63.32C-32.509,-63.32 -34.105,-62.55 -35.321,-61.151C-37.255,-58.926 -37.267,-56.202 -35.352,-54.213C-34.469,-53.296 -33.401,-52.758 -32.263,-52.656C-31.021,-52.546 -29.675,-52.444 -28.242,-52.444C-27.832,-52.444 -27.418,-52.452 -27,-52.471C-24.809,-52.568 -22.578,-52.726 -20.384,-52.891C-21.2,-51.265 -22.003,-49.593 -22.532,-47.899C-24.047,-43.039 -27.646,-38.911 -34.199,-34.515L-35.558,-33.601C-40.265,-30.427 -44.71,-27.429 -49.442,-25.877C-50.873,-25.407 -51.717,-25.306 -52.177,-25.303C-52.156,-25.664 -52.056,-26.299 -51.709,-27.312C-51.187,-28.839 -50.505,-30.4 -49.784,-32.051C-49.306,-33.146 -48.828,-34.242 -48.394,-35.333C-48.226,-35.755 -48.052,-36.179 -47.878,-36.604C-47.132,-38.426 -46.361,-40.309 -45.946,-42.201C-45.416,-44.612 -46.138,-46.153 -46.836,-47.022C-47.743,-48.15 -49.116,-48.772 -50.702,-48.772C-52.15,-48.772 -53.771,-48.242 -55.389,-47.24C-57.134,-46.16 -58.944,-44.598 -60.488,-42.838C-62.113,-40.986 -63.602,-39.062 -65.041,-37.201C-65.655,-36.407 -66.269,-35.614 -66.894,-34.826C-71.145,-29.462 -74.812,-25.649 -78.747,-22.504C-78,-24.064 -77.209,-25.635 -76.437,-27.17C-75.729,-28.574 -75.022,-29.979 -74.342,-31.383C-74.057,-31.972 -73.765,-32.561 -73.473,-33.151C-72.37,-35.381 -71.229,-37.687 -70.414,-39.998C-69.541,-42.47 -70.113,-44.169 -70.747,-45.159C-71.607,-46.504 -73.089,-47.339 -74.919,-47.51C-75.156,-47.532 -75.396,-47.543 -75.641,-47.543C-78.554,-47.543 -81.622,-45.946 -83.646,-43.376C-85.732,-40.73 -87.909,-37.899 -89.578,-34.963C-93.65,-27.799 -95.688,-22.068 -95.991,-16.928C-96.141,-14.4 -95.537,-12.398 -94.199,-10.978C-93.345,-10.072 -91.768,-8.993 -89.105,-8.993C-87.925,-8.993 -86.592,-9.206 -85.145,-9.628C-80.539,-10.97 -76.124,-13.632 -72.025,-17.542C-70.788,-18.723 -69.594,-19.945 -68.436,-21.144C-68.352,-17.935 -67.132,-15.96 -66.066,-14.84C-64.467,-13.161 -62.188,-12.274 -59.477,-12.274C-58.559,-12.274 -57.582,-12.375 -56.571,-12.576C-53.863,-13.116 -51.227,-13.931 -48.736,-14.997C-43.498,-17.242 -38.795,-20.499 -33.962,-24.298C-36.071,-20.018 -38.178,-15.738 -40.269,-11.458L-41.027,-9.905C-47.637,3.623 -54.473,17.611 -59.229,31.373C-60.457,34.925 -61.068,38.357 -61.66,41.678C-61.774,42.316 -61.887,42.953 -62.005,43.592C-62.371,45.571 -61.093,46.849 -60.548,47.393C-60.487,47.454 -60.425,47.513 -60.371,47.574L-58.517,50.279L-55.422,47.344C-54.788,46.746 -54.154,46.147 -53.537,45.535C-53.015,45.015 -52.753,44.456 -52.597,44.123L-37.615,13.117C-26.934,-8.987 -16.252,-31.092 -5.583,-53.195C-5.173,-54.042 -4.891,-54.044 -4.685,-54.045C-3.126,-54.055 -1.563,-54.071 0,-54.089" style="fill:rgb(175,202,11);fill-rule:nonzero;"/>
    </g>
</svg>
