<svg width="186" height="32" viewBox="0 0 186 32" fill="none" xmlns="http://www.w3.org/2000/svg">
<path d="M152.863 21.0437C153.718 21.0437 154.475 21.2025 155.134 21.5203C155.797 21.8334 156.325 22.2778 156.718 22.8533C157.111 23.4242 157.336 24.0919 157.391 24.8562H155.017C154.921 24.3453 154.692 23.9195 154.331 23.5789C153.974 23.2335 153.496 23.0603 152.897 23.0603C152.39 23.0603 151.944 23.199 151.56 23.4753C151.176 23.747 150.876 24.1382 150.661 24.6492C150.451 25.1604 150.346 25.7732 150.346 26.4871C150.346 27.21 150.451 27.832 150.661 28.3523C150.871 28.8678 151.166 29.2658 151.546 29.5466C151.93 29.8229 152.381 29.9617 152.897 29.9617C153.263 29.9616 153.59 29.8926 153.878 29.7546C154.171 29.6119 154.416 29.4065 154.612 29.1394C154.809 28.8724 154.943 28.5478 155.017 28.1658H157.391C157.331 28.9163 157.111 29.5817 156.731 30.1619C156.352 30.7373 155.835 31.1885 155.182 31.5154C154.528 31.8377 153.759 31.9997 152.877 31.9998C151.825 31.9998 150.922 31.7666 150.167 31.3015C149.417 30.8365 148.839 30.1943 148.432 29.3748C148.029 28.5504 147.828 27.6011 147.828 26.5281C147.828 25.4506 148.034 24.4998 148.445 23.6755C148.857 22.8466 149.437 22.2015 150.188 21.741C150.942 21.2758 151.834 21.0437 152.863 21.0437ZM164.025 21.0437C165.054 21.0437 165.947 21.2714 166.701 21.7273C167.456 22.1831 168.039 22.8231 168.45 23.6472C168.866 24.4715 169.074 25.4321 169.074 26.5281C169.074 27.6241 168.866 28.5824 168.45 29.4021C168.039 30.2217 167.456 30.8593 166.701 31.3152C165.947 31.7711 165.054 31.9998 164.025 31.9998C162.997 31.9997 162.105 31.771 161.351 31.3152C160.596 30.8593 160.01 30.2218 159.594 29.4021C159.182 28.5824 158.977 27.6241 158.977 26.5281C158.977 25.4321 159.182 24.4715 159.594 23.6472C160.01 22.823 160.596 22.1832 161.351 21.7273C162.105 21.2715 162.997 21.0437 164.025 21.0437ZM144.207 28.9187C144.609 28.9187 144.96 29.0656 145.257 29.3601C145.559 29.6548 145.712 30.0101 145.717 30.4246C145.712 30.7054 145.639 30.961 145.497 31.1912C145.36 31.4214 145.177 31.6058 144.948 31.7439C144.724 31.8774 144.477 31.9441 144.207 31.9441C143.791 31.944 143.435 31.7963 143.138 31.5017C142.84 31.207 142.694 30.8481 142.698 30.4246C142.694 30.0101 142.84 29.6548 143.138 29.3601C143.435 29.0657 143.791 28.9188 144.207 28.9187ZM109.123 12.6238C111.81 12.6238 113.928 13.1842 115.478 14.3054C117.035 15.4266 117.853 16.9784 117.934 18.9607H111.786C111.754 18.5789 111.621 18.2496 111.387 17.9734C111.153 17.6972 110.85 17.4858 110.479 17.3396C110.116 17.1853 109.712 17.1082 109.269 17.1082C108.696 17.1082 108.203 17.2143 107.792 17.4255C107.381 17.6367 107.179 17.9371 107.187 18.3269C107.178 18.6031 107.296 18.8589 107.538 19.0945C107.788 19.3301 108.268 19.5133 108.979 19.6433L112.754 20.3259C114.658 20.6753 116.074 21.2639 117.002 22.0925C117.938 22.913 118.41 24.0143 118.418 25.3953C118.41 26.7276 118.015 27.8859 117.232 28.8689C116.458 29.8439 115.396 30.5993 114.049 31.1355C112.709 31.6636 111.18 31.9285 109.462 31.9285C106.622 31.9284 104.399 31.3433 102.794 30.1736C101.196 29.0036 100.305 27.4592 100.119 25.5417H106.751C106.84 26.1349 107.131 26.5937 107.623 26.9187C108.123 27.2355 108.752 27.3943 109.511 27.3943C110.124 27.3943 110.628 27.2891 111.023 27.0779C111.427 26.8666 111.633 26.5655 111.641 26.1755C111.632 25.8183 111.455 25.5342 111.108 25.323C110.77 25.1118 110.237 24.9403 109.511 24.8103L106.219 24.2253C104.323 23.8923 102.903 23.2591 101.959 22.325C101.015 21.3907 100.547 20.1879 100.555 18.7175C100.547 17.4177 100.886 16.3166 101.571 15.4148C102.265 14.5049 103.253 13.8138 104.536 13.3425C105.827 12.8632 107.356 12.6238 109.123 12.6238ZM89.1816 12.6238C90.5127 12.6238 91.7068 12.7816 92.7637 13.0984C93.8206 13.4071 94.7206 13.8425 95.4629 14.4031C96.205 14.9555 96.77 15.6059 97.1572 16.3533C97.5523 17.0924 97.7499 17.8964 97.75 18.7654V31.5867H91.5049V28.9548H91.3594C90.9883 29.6534 90.5363 30.2177 90.0039 30.6482C89.4795 31.0787 88.8788 31.3917 88.2012 31.5867C87.5315 31.7817 86.7931 31.8796 85.9863 31.8796C84.8005 31.8796 83.7515 31.6846 82.8398 31.2947C81.9362 30.8966 81.2254 30.2953 80.709 29.491C80.1926 28.6867 79.9346 27.6627 79.9346 26.4197C79.9346 25.3961 80.1083 24.5226 80.4551 23.7996C80.802 23.0684 81.286 22.4707 81.9072 22.0076C82.5285 21.5445 83.2512 21.1908 84.0742 20.947C84.9052 20.7033 85.8007 20.5455 86.7607 20.4724C87.8014 20.3912 88.6363 20.2932 89.2656 20.1794C89.903 20.0576 90.3631 19.8907 90.6455 19.6794C90.9278 19.4601 91.0693 19.1716 91.0693 18.8142V18.7654C91.0692 18.2781 90.8837 17.9042 90.5127 17.6443C90.1416 17.3843 89.6649 17.2546 89.084 17.2546C88.4468 17.2547 87.9268 17.3971 87.5234 17.6814C87.1281 17.9576 86.8903 18.3839 86.8096 18.9607H80.6611C80.7418 17.8233 81.1009 16.7748 81.7383 15.8162C82.3837 14.8495 83.3234 14.0775 84.5576 13.5007C85.7921 12.9157 87.334 12.6238 89.1816 12.6238ZM182.707 21.0437C183.677 21.0437 184.467 21.3524 185.08 21.9695C185.693 22.5865 186 23.4863 186 24.6697V31.7917H183.51V25.0564C183.51 24.3981 183.336 23.9169 182.988 23.613C182.641 23.3045 182.215 23.1501 181.712 23.1501C181.113 23.1502 180.644 23.339 180.306 23.7166C179.972 24.0896 179.806 24.5759 179.806 25.1746V31.7917H177.37V24.9529C177.37 24.405 177.205 23.9673 176.876 23.6404C176.551 23.3135 176.125 23.1501 175.6 23.1501C175.243 23.1502 174.919 23.2424 174.626 23.4265C174.333 23.6061 174.1 23.8615 173.926 24.1931C173.752 24.5201 173.666 24.9031 173.666 25.3406V31.7917H171.183V21.1814H173.556V22.9841H173.68C173.899 22.3765 174.263 21.902 174.771 21.5613C175.278 21.2161 175.884 21.0437 176.588 21.0437C177.301 21.0437 177.902 21.2183 178.392 21.5681C178.885 21.9134 179.233 22.3856 179.435 22.9841H179.545C179.778 22.3949 180.171 21.9249 180.725 21.575C181.282 21.2205 181.943 21.0437 182.707 21.0437ZM14.5234 19.6921H14.7168V6.62769H21.4463V31.5867H15.8301L6.87402 18.4734H6.72949V31.5867H0V6.62769H5.71289L14.5234 19.6921ZM33.7061 6.28589C35.6907 6.28592 37.4091 6.607 38.8613 7.24878C40.3217 7.88252 41.4476 8.77669 42.2383 9.93042C43.0369 11.084 43.4365 12.4365 43.4365 13.988C43.4365 14.9467 43.239 15.9018 42.8438 16.8523C42.4484 17.7948 41.7375 18.8386 40.7129 19.9841C39.6882 21.1297 38.2318 22.4955 36.3438 24.0798L34.0205 26.0291V26.1755H43.7021V31.5867H24.6777V26.7117L33.9238 19.0095C34.537 18.4977 35.0614 18.0179 35.4971 17.571C35.9407 17.1161 36.2797 16.6489 36.5137 16.1697C36.7556 15.6904 36.877 15.1579 36.877 14.573C36.8769 13.9314 36.7391 13.3833 36.4648 12.9285C36.1986 12.4735 35.8276 12.1234 35.3516 11.8796C34.8757 11.6279 34.3271 11.5027 33.7061 11.5027C33.0848 11.5027 32.5356 11.6278 32.0596 11.8796C31.5917 12.1315 31.2289 12.5016 30.9707 12.989C30.7125 13.4765 30.583 14.0696 30.583 14.7683H24.1934C24.1934 13.0135 24.5847 11.5025 25.3672 10.2351C26.1498 8.96763 27.2555 7.99181 28.6836 7.30933C30.1116 6.627 31.786 6.28589 33.7061 6.28589ZM76.2695 7.2019C80.206 2.74242 87.2281 2.15726 87.0947 2.24683C85.619 3.23744 86.1106 2.74243 82.0078 6.62671C74.6552 13.5876 73.3838 31.5867 73.3838 31.5867H66.9453L62.7344 17.6443H62.54L58.3281 31.5867H51.8896L44.5801 6.62671H52.084L55.4727 21.9832H55.666L59.6836 6.62671H65.5898L69.6084 22.032H69.8018C69.8018 22.032 71.6939 12.3857 76.2695 7.2019ZM127.416 16.4255H127.61C128.03 15.2314 128.728 14.3016 129.704 13.6355C130.68 12.9612 131.854 12.6238 133.226 12.6238C134.541 12.6238 135.682 12.9241 136.65 13.5251C137.627 14.1264 138.382 14.9553 138.914 16.0115C139.455 17.0677 139.721 18.2784 139.713 19.6433V31.5867H133.032V21.0574C133.04 20.1311 132.81 19.4038 132.342 18.8757C131.882 18.3477 131.224 18.0837 130.369 18.0837C129.829 18.0838 129.353 18.2053 128.941 18.449C128.538 18.6846 128.223 19.0256 127.997 19.4724C127.779 19.9112 127.666 20.4399 127.658 21.0574V31.5867H120.978V6.62769H127.416V16.4255ZM164.039 23.0261C163.468 23.0262 162.992 23.1828 162.612 23.4958C162.237 23.8089 161.956 24.2301 161.769 24.7595C161.586 25.2845 161.494 25.8719 161.494 26.5212C161.494 27.166 161.586 27.7511 161.769 28.2761C161.956 28.801 162.237 29.2198 162.612 29.533C162.992 29.8414 163.468 29.9958 164.039 29.9958C164.597 29.9958 165.063 29.8415 165.438 29.533C165.813 29.2199 166.092 28.801 166.275 28.2761C166.463 27.7511 166.557 27.166 166.557 26.5212C166.557 25.8719 166.463 25.2845 166.275 24.7595C166.092 24.2301 165.813 23.8089 165.438 23.4958C165.063 23.1828 164.597 23.0261 164.039 23.0261ZM91.1182 23.3972C90.9407 23.4703 90.7505 23.5392 90.5488 23.6042C90.3553 23.6692 90.1457 23.73 89.9199 23.7869C89.7022 23.8437 89.4678 23.8963 89.2178 23.9451C88.9757 23.9938 88.7213 24.0392 88.4551 24.0798C87.9387 24.1611 87.5154 24.2953 87.1846 24.4822C86.8618 24.6609 86.6194 24.884 86.458 25.1521C86.3048 25.4119 86.2286 25.7043 86.2285 26.0291C86.2285 26.5488 86.4097 26.9472 86.7725 27.2234C87.1355 27.4996 87.6003 27.6384 88.165 27.6384C88.6732 27.6384 89.1491 27.5322 89.5928 27.321C90.0445 27.1098 90.412 26.8051 90.6943 26.407C90.9766 26.0089 91.1182 25.5254 91.1182 24.9568V23.3972ZM94.2393 1.17163C99.2198 -0.438835 103.825 -0.726398 104.609 2.49292C105.394 5.71229 103.333 9.67962 99.3965 10.6707C94.4161 12.2808 90.3496 7.84033 82.1494 11.0916C81.9948 11.1398 89.2647 2.78094 94.2393 1.17163ZM101.255 5.49194C100.825 4.79455 99.3529 4.9313 97.9678 5.79761C96.5831 6.66382 95.8085 7.93129 96.2383 8.62866C96.6684 9.32599 98.1404 9.18904 99.5254 8.323C100.91 7.45686 101.684 6.18944 101.255 5.49194Z" fill="#0050E0"/>
</svg>
